<mxfile host="app.diagrams.net" agent="Mozilla/5.0 (Macintosh; Intel Mac OS X 10_15_7) AppleWebKit/537.36 (KHTML, like Gecko) Chrome/130.0.0.0 Safari/537.36" version="24.8.6">
  <diagram id="C5RBs43oDa-KdzZeNtuy" name="Page-1">
    <mxGraphModel dx="3004" dy="1205" grid="1" gridSize="10" guides="1" tooltips="1" connect="1" arrows="1" fold="1" page="1" pageScale="1" pageWidth="827" pageHeight="1169" background="#f4f3f1" math="0" shadow="0">
      <root>
        <mxCell id="WIyWlLk6GJQsqaUBKTNV-0" />
        <mxCell id="WIyWlLk6GJQsqaUBKTNV-1" parent="WIyWlLk6GJQsqaUBKTNV-0" />
        <mxCell id="YaLutMvPSZ33mndmcyX8-17" value="" style="edgeStyle=orthogonalEdgeStyle;rounded=0;orthogonalLoop=1;jettySize=auto;html=1;fixDash=1;snapToPoint=1;enumerate=0;comic=0;fontStyle=1" edge="1" parent="WIyWlLk6GJQsqaUBKTNV-1" target="WIyWlLk6GJQsqaUBKTNV-11">
          <mxGeometry relative="1" as="geometry">
            <mxPoint x="209.33333333333348" y="140" as="sourcePoint" />
          </mxGeometry>
        </mxCell>
        <mxCell id="YaLutMvPSZ33mndmcyX8-1" value="" style="edgeStyle=orthogonalEdgeStyle;rounded=0;orthogonalLoop=1;jettySize=auto;html=1;fixDash=1;snapToPoint=1;enumerate=0;comic=0;fontStyle=1" edge="1" parent="WIyWlLk6GJQsqaUBKTNV-1" source="WIyWlLk6GJQsqaUBKTNV-11" target="YaLutMvPSZ33mndmcyX8-0">
          <mxGeometry relative="1" as="geometry" />
        </mxCell>
        <mxCell id="WIyWlLk6GJQsqaUBKTNV-11" value="历史订单排期、待排期订单数据分离" style="rounded=1;whiteSpace=wrap;html=1;fontSize=12;glass=0;strokeWidth=1;shadow=0;fixDash=1;snapToPoint=1;enumerate=0;comic=0;fontStyle=1" parent="WIyWlLk6GJQsqaUBKTNV-1" vertex="1">
          <mxGeometry x="100" y="170" width="220" height="60" as="geometry" />
        </mxCell>
        <mxCell id="YaLutMvPSZ33mndmcyX8-5" value="" style="edgeStyle=orthogonalEdgeStyle;rounded=0;orthogonalLoop=1;jettySize=auto;html=1;fixDash=1;snapToPoint=1;enumerate=0;comic=0;fontStyle=1" edge="1" parent="WIyWlLk6GJQsqaUBKTNV-1" source="YaLutMvPSZ33mndmcyX8-0" target="YaLutMvPSZ33mndmcyX8-4">
          <mxGeometry relative="1" as="geometry" />
        </mxCell>
        <mxCell id="YaLutMvPSZ33mndmcyX8-0" value="历史订单排期、待排期订单数据分离" style="rounded=1;whiteSpace=wrap;html=1;fontSize=12;glass=0;strokeWidth=1;shadow=0;fixDash=1;snapToPoint=1;enumerate=0;comic=0;fontStyle=1" vertex="1" parent="WIyWlLk6GJQsqaUBKTNV-1">
          <mxGeometry x="100" y="290" width="220" height="60" as="geometry" />
        </mxCell>
        <mxCell id="YaLutMvPSZ33mndmcyX8-7" value="" style="edgeStyle=orthogonalEdgeStyle;rounded=0;orthogonalLoop=1;jettySize=auto;html=1;fixDash=1;snapToPoint=1;enumerate=0;comic=0;fontStyle=1" edge="1" parent="WIyWlLk6GJQsqaUBKTNV-1" source="YaLutMvPSZ33mndmcyX8-4" target="YaLutMvPSZ33mndmcyX8-6">
          <mxGeometry relative="1" as="geometry" />
        </mxCell>
        <mxCell id="YaLutMvPSZ33mndmcyX8-8" value="是" style="edgeLabel;html=1;align=center;verticalAlign=middle;resizable=0;points=[];fixDash=1;snapToPoint=1;enumerate=0;comic=0;fontStyle=1" vertex="1" connectable="0" parent="YaLutMvPSZ33mndmcyX8-7">
          <mxGeometry relative="1" as="geometry">
            <mxPoint as="offset" />
          </mxGeometry>
        </mxCell>
        <mxCell id="YaLutMvPSZ33mndmcyX8-10" value="" style="edgeStyle=orthogonalEdgeStyle;rounded=0;orthogonalLoop=1;jettySize=auto;html=1;fixDash=1;snapToPoint=1;enumerate=0;comic=0;fontStyle=1" edge="1" parent="WIyWlLk6GJQsqaUBKTNV-1" source="YaLutMvPSZ33mndmcyX8-4" target="YaLutMvPSZ33mndmcyX8-9">
          <mxGeometry relative="1" as="geometry" />
        </mxCell>
        <mxCell id="YaLutMvPSZ33mndmcyX8-11" value="否" style="edgeLabel;html=1;align=center;verticalAlign=middle;resizable=0;points=[];fixDash=1;snapToPoint=1;enumerate=0;comic=0;fontStyle=1" vertex="1" connectable="0" parent="YaLutMvPSZ33mndmcyX8-10">
          <mxGeometry relative="1" as="geometry">
            <mxPoint as="offset" />
          </mxGeometry>
        </mxCell>
        <mxCell id="YaLutMvPSZ33mndmcyX8-4" value="新的排期是否与旧订单有重名&lt;div&gt;（时间有重叠）&lt;/div&gt;" style="rhombus;whiteSpace=wrap;html=1;rounded=1;glass=0;strokeWidth=1;shadow=0;fixDash=1;snapToPoint=1;enumerate=0;comic=0;fontStyle=1" vertex="1" parent="WIyWlLk6GJQsqaUBKTNV-1">
          <mxGeometry x="100" y="410" width="220" height="60" as="geometry" />
        </mxCell>
        <mxCell id="YaLutMvPSZ33mndmcyX8-58" value="" style="edgeStyle=orthogonalEdgeStyle;rounded=0;orthogonalLoop=1;jettySize=auto;html=1;fixDash=1;snapToPoint=1;entryX=0.218;entryY=0.295;entryDx=0;entryDy=0;entryPerimeter=0;enumerate=0;comic=0;fontStyle=1" edge="1" parent="WIyWlLk6GJQsqaUBKTNV-1">
          <mxGeometry relative="1" as="geometry">
            <mxPoint x="-180.00181818181846" y="1180.004545454545" as="sourcePoint" />
            <mxPoint x="100" y="1450" as="targetPoint" />
            <Array as="points">
              <mxPoint x="-170" y="1180" />
              <mxPoint x="-170" y="1450" />
            </Array>
          </mxGeometry>
        </mxCell>
        <mxCell id="YaLutMvPSZ33mndmcyX8-6" value="返回code=ErrCodeFastLinkNameSameErr" style="whiteSpace=wrap;html=1;rounded=1;glass=0;strokeWidth=1;shadow=0;fixDash=1;snapToPoint=1;enumerate=0;comic=0;fontStyle=1" vertex="1" parent="WIyWlLk6GJQsqaUBKTNV-1">
          <mxGeometry x="-270" y="1120" width="220" height="60" as="geometry" />
        </mxCell>
        <mxCell id="YaLutMvPSZ33mndmcyX8-13" value="" style="edgeStyle=orthogonalEdgeStyle;rounded=0;orthogonalLoop=1;jettySize=auto;html=1;fixDash=1;snapToPoint=1;enumerate=0;comic=0;fontStyle=1" edge="1" parent="WIyWlLk6GJQsqaUBKTNV-1" source="YaLutMvPSZ33mndmcyX8-9">
          <mxGeometry relative="1" as="geometry">
            <mxPoint x="210" y="680" as="targetPoint" />
          </mxGeometry>
        </mxCell>
        <mxCell id="YaLutMvPSZ33mndmcyX8-9" value="检查是否使用了附加位置（第五快链）&lt;div&gt;如有增加到可选列表&lt;/div&gt;&lt;div&gt;无默认5/6/7/8位置可选&lt;/div&gt;" style="whiteSpace=wrap;html=1;rounded=1;glass=0;strokeWidth=1;shadow=0;fixDash=1;snapToPoint=1;enumerate=0;comic=0;fontStyle=1" vertex="1" parent="WIyWlLk6GJQsqaUBKTNV-1">
          <mxGeometry x="100" y="540" width="220" height="60" as="geometry" />
        </mxCell>
        <mxCell id="YaLutMvPSZ33mndmcyX8-24" value="" style="edgeStyle=orthogonalEdgeStyle;rounded=0;orthogonalLoop=1;jettySize=auto;html=1;entryDx=0;entryDy=0;fixDash=1;snapToPoint=1;enumerate=0;comic=0;fontStyle=1" edge="1" parent="WIyWlLk6GJQsqaUBKTNV-1" target="YaLutMvPSZ33mndmcyX8-23">
          <mxGeometry relative="1" as="geometry">
            <mxPoint x="310" y="880" as="sourcePoint" />
            <mxPoint x="790.04347826087" y="945" as="targetPoint" />
          </mxGeometry>
        </mxCell>
        <mxCell id="YaLutMvPSZ33mndmcyX8-25" value="可以分配" style="edgeLabel;html=1;align=center;verticalAlign=middle;resizable=0;points=[];fixDash=1;snapToPoint=1;enumerate=0;comic=0;fontStyle=1" vertex="1" connectable="0" parent="YaLutMvPSZ33mndmcyX8-24">
          <mxGeometry relative="1" as="geometry">
            <mxPoint as="offset" />
          </mxGeometry>
        </mxCell>
        <mxCell id="YaLutMvPSZ33mndmcyX8-42" value="" style="edgeStyle=orthogonalEdgeStyle;rounded=0;orthogonalLoop=1;jettySize=auto;html=1;fixDash=1;snapToPoint=1;enumerate=0;comic=0;fontStyle=1" edge="1" parent="WIyWlLk6GJQsqaUBKTNV-1" source="YaLutMvPSZ33mndmcyX8-23" target="YaLutMvPSZ33mndmcyX8-41">
          <mxGeometry relative="1" as="geometry" />
        </mxCell>
        <mxCell id="YaLutMvPSZ33mndmcyX8-23" value="&lt;p class=&quot;p1&quot; style=&quot;margin: 0px; font-variant-numeric: normal; font-variant-east-asian: normal; font-variant-alternates: normal; font-size-adjust: none; font-kerning: auto; font-optical-sizing: auto; font-feature-settings: normal; font-variation-settings: normal; font-variant-position: normal; font-stretch: normal; line-height: normal; text-align: start;&quot;&gt;分配位置并标记成功&lt;/p&gt;" style="whiteSpace=wrap;html=1;rounded=1;glass=0;strokeWidth=1;shadow=0;fixDash=1;snapToPoint=1;enumerate=0;comic=0;fontStyle=1" vertex="1" parent="WIyWlLk6GJQsqaUBKTNV-1">
          <mxGeometry x="490" y="970" width="220" height="60" as="geometry" />
        </mxCell>
        <mxCell id="YaLutMvPSZ33mndmcyX8-52" value="" style="edgeStyle=orthogonalEdgeStyle;rounded=0;orthogonalLoop=1;jettySize=auto;html=1;fixDash=1;snapToPoint=1;enumerate=0;comic=0;fontStyle=1" edge="1" parent="WIyWlLk6GJQsqaUBKTNV-1" source="YaLutMvPSZ33mndmcyX8-26" target="YaLutMvPSZ33mndmcyX8-51">
          <mxGeometry relative="1" as="geometry" />
        </mxCell>
        <mxCell id="YaLutMvPSZ33mndmcyX8-26" value="&lt;p class=&quot;p1&quot; style=&quot;margin: 0px; font-variant-numeric: normal; font-variant-east-asian: normal; font-variant-alternates: normal; font-size-adjust: none; font-kerning: auto; font-optical-sizing: auto; font-feature-settings: normal; font-variation-settings: normal; font-variant-position: normal; font-stretch: normal; line-height: normal; text-align: start;&quot;&gt;检查是否尝试过所有位置&lt;/p&gt;" style="whiteSpace=wrap;html=1;rounded=1;glass=0;strokeWidth=1;shadow=0;fixDash=1;snapToPoint=1;enumerate=0;comic=0;fontStyle=1" vertex="1" parent="WIyWlLk6GJQsqaUBKTNV-1">
          <mxGeometry x="100" y="980" width="220" height="60" as="geometry" />
        </mxCell>
        <mxCell id="YaLutMvPSZ33mndmcyX8-37" value="" style="edgeStyle=orthogonalEdgeStyle;rounded=0;orthogonalLoop=1;jettySize=auto;html=1;fixDash=1;snapToPoint=1;enumerate=0;comic=0;fontStyle=1" edge="1" parent="WIyWlLk6GJQsqaUBKTNV-1" source="YaLutMvPSZ33mndmcyX8-30" target="YaLutMvPSZ33mndmcyX8-36">
          <mxGeometry relative="1" as="geometry" />
        </mxCell>
        <mxCell id="YaLutMvPSZ33mndmcyX8-59" value="pos" style="edgeLabel;html=1;align=center;verticalAlign=middle;resizable=0;points=[];fixDash=1;snapToPoint=1;enumerate=0;comic=0;fontStyle=1" vertex="1" connectable="0" parent="YaLutMvPSZ33mndmcyX8-37">
          <mxGeometry relative="1" as="geometry">
            <mxPoint as="offset" />
          </mxGeometry>
        </mxCell>
        <mxCell id="YaLutMvPSZ33mndmcyX8-30" value="&lt;p class=&quot;p1&quot; style=&quot;font-variant-numeric: normal; font-variant-east-asian: normal; font-variant-alternates: normal; font-size-adjust: none; font-kerning: auto; font-optical-sizing: auto; font-feature-settings: normal; font-variation-settings: normal; font-variant-position: normal; font-stretch: normal; line-height: normal; margin: 0px; text-align: start;&quot;&gt;&lt;span style=&quot;text-align: center;&quot;&gt;遍历可选列表中每个位置&lt;/span&gt;&lt;/p&gt;" style="rhombus;whiteSpace=wrap;html=1;rounded=1;glass=0;strokeWidth=1;shadow=0;fixDash=1;snapToPoint=1;enumerate=0;comic=0;fontStyle=1" vertex="1" parent="WIyWlLk6GJQsqaUBKTNV-1">
          <mxGeometry x="100" y="670" width="220" height="60" as="geometry" />
        </mxCell>
        <mxCell id="YaLutMvPSZ33mndmcyX8-40" value="" style="edgeStyle=orthogonalEdgeStyle;rounded=0;orthogonalLoop=1;jettySize=auto;html=1;entryDx=0;entryDy=0;entryPerimeter=0;fixDash=1;snapToPoint=1;enumerate=0;comic=0;fontStyle=1" edge="1" parent="WIyWlLk6GJQsqaUBKTNV-1" source="YaLutMvPSZ33mndmcyX8-36" target="YaLutMvPSZ33mndmcyX8-26">
          <mxGeometry relative="1" as="geometry">
            <mxPoint x="210" y="1020" as="targetPoint" />
          </mxGeometry>
        </mxCell>
        <mxCell id="YaLutMvPSZ33mndmcyX8-36" value="&lt;p class=&quot;p1&quot; style=&quot;font-variant-numeric: normal; font-variant-east-asian: normal; font-variant-alternates: normal; font-size-adjust: none; font-kerning: auto; font-optical-sizing: auto; font-feature-settings: normal; font-variation-settings: normal; font-variant-position: normal; font-stretch: normal; line-height: normal; margin: 0px; text-align: start;&quot;&gt;&lt;span style=&quot;white-space: pre;&quot;&gt;&#x9;&lt;/span&gt;检查是否可以分配&lt;/p&gt;&lt;div&gt;（与历史订单无排期冲突即可选）&lt;/div&gt;" style="whiteSpace=wrap;html=1;rounded=1;glass=0;strokeWidth=1;shadow=0;fixDash=1;snapToPoint=1;enumerate=0;comic=0;fontStyle=1" vertex="1" parent="WIyWlLk6GJQsqaUBKTNV-1">
          <mxGeometry x="100" y="850" width="220" height="60" as="geometry" />
        </mxCell>
        <mxCell id="YaLutMvPSZ33mndmcyX8-44" value="" style="edgeStyle=orthogonalEdgeStyle;rounded=0;orthogonalLoop=1;jettySize=auto;html=1;fixDash=1;snapToPoint=1;enumerate=0;comic=0;fontStyle=1" edge="1" parent="WIyWlLk6GJQsqaUBKTNV-1" source="YaLutMvPSZ33mndmcyX8-41" target="YaLutMvPSZ33mndmcyX8-43">
          <mxGeometry relative="1" as="geometry" />
        </mxCell>
        <mxCell id="YaLutMvPSZ33mndmcyX8-41" value="&lt;p class=&quot;p1&quot; style=&quot;margin: 0px; font-variant-numeric: normal; font-variant-east-asian: normal; font-variant-alternates: normal; font-size-adjust: none; font-kerning: auto; font-optical-sizing: auto; font-feature-settings: normal; font-variation-settings: normal; font-variant-position: normal; font-stretch: normal; line-height: normal; text-align: start;&quot;&gt;将新排期加入现有列表&lt;/p&gt;" style="whiteSpace=wrap;html=1;rounded=1;glass=0;strokeWidth=1;shadow=0;fixDash=1;snapToPoint=1;enumerate=0;comic=0;fontStyle=1" vertex="1" parent="WIyWlLk6GJQsqaUBKTNV-1">
          <mxGeometry x="490" y="1110" width="220" height="60" as="geometry" />
        </mxCell>
        <mxCell id="YaLutMvPSZ33mndmcyX8-47" value="" style="edgeStyle=orthogonalEdgeStyle;rounded=0;orthogonalLoop=1;jettySize=auto;html=1;exitDx=0;exitDy=0;fixDash=1;snapToPoint=1;enumerate=0;comic=0;fontStyle=1" edge="1" parent="WIyWlLk6GJQsqaUBKTNV-1" source="YaLutMvPSZ33mndmcyX8-43">
          <mxGeometry relative="1" as="geometry">
            <mxPoint x="587.5000000000002" y="1300" as="sourcePoint" />
            <mxPoint x="277.5" y="1450" as="targetPoint" />
            <Array as="points">
              <mxPoint x="600" y="1450" />
            </Array>
          </mxGeometry>
        </mxCell>
        <mxCell id="YaLutMvPSZ33mndmcyX8-43" value="&lt;p class=&quot;p1&quot; style=&quot;margin: 0px; font-variant-numeric: normal; font-variant-east-asian: normal; font-variant-alternates: normal; font-size-adjust: none; font-kerning: auto; font-optical-sizing: auto; font-feature-settings: normal; font-variation-settings: normal; font-variant-position: normal; font-stretch: normal; line-height: normal; text-align: start;&quot;&gt;所有新排期处理完毕&lt;/p&gt;" style="whiteSpace=wrap;html=1;rounded=1;glass=0;strokeWidth=1;shadow=0;fixDash=1;snapToPoint=1;enumerate=0;comic=0;fontStyle=1" vertex="1" parent="WIyWlLk6GJQsqaUBKTNV-1">
          <mxGeometry x="490" y="1240" width="220" height="60" as="geometry" />
        </mxCell>
        <mxCell id="YaLutMvPSZ33mndmcyX8-45" value="结束" style="html=1;dashed=0;whiteSpace=wrap;shape=mxgraph.dfd.start;fixDash=1;snapToPoint=1;enumerate=0;comic=0;fontStyle=1" vertex="1" parent="WIyWlLk6GJQsqaUBKTNV-1">
          <mxGeometry x="100" y="1420" width="220" height="60" as="geometry" />
        </mxCell>
        <mxCell id="YaLutMvPSZ33mndmcyX8-54" value="" style="edgeStyle=orthogonalEdgeStyle;rounded=0;orthogonalLoop=1;jettySize=auto;html=1;entryDx=0;entryDy=-29.999999999999996;entryPerimeter=0;fixDash=1;snapToPoint=1;enumerate=0;comic=0;fontStyle=1" edge="1" parent="WIyWlLk6GJQsqaUBKTNV-1" source="YaLutMvPSZ33mndmcyX8-51" target="YaLutMvPSZ33mndmcyX8-45">
          <mxGeometry relative="1" as="geometry">
            <mxPoint x="193" y="1410" as="targetPoint" />
          </mxGeometry>
        </mxCell>
        <mxCell id="YaLutMvPSZ33mndmcyX8-51" value="&lt;p class=&quot;p1&quot; style=&quot;margin: 0px; font-variant-numeric: normal; font-variant-east-asian: normal; font-variant-alternates: normal; font-size-adjust: none; font-kerning: auto; font-optical-sizing: auto; font-feature-settings: normal; font-variation-settings: normal; font-variant-position: normal; font-stretch: normal; line-height: normal; text-align: start;&quot;&gt;记录错误并返回错误码&lt;/p&gt;" style="whiteSpace=wrap;html=1;rounded=1;glass=0;strokeWidth=1;shadow=0;fixDash=1;snapToPoint=1;enumerate=0;comic=0;fontStyle=1" vertex="1" parent="WIyWlLk6GJQsqaUBKTNV-1">
          <mxGeometry x="100" y="1120" width="220" height="60" as="geometry" />
        </mxCell>
        <mxCell id="YaLutMvPSZ33mndmcyX8-60" value="&lt;meta charset=&quot;utf-8&quot;&gt;&lt;span style=&quot;color: rgb(0, 0, 0); font-family: Helvetica; font-size: 12px; font-style: normal; font-variant-ligatures: normal; font-variant-caps: normal; font-weight: 700; letter-spacing: normal; orphans: 2; text-align: center; text-indent: 0px; text-transform: none; widows: 2; word-spacing: 0px; -webkit-text-stroke-width: 0px; white-space: normal; background-color: rgb(251, 251, 251); text-decoration-thickness: initial; text-decoration-style: initial; text-decoration-color: initial; display: inline !important; float: none;&quot;&gt;开始&lt;/span&gt;" style="html=1;dashed=0;whiteSpace=wrap;shape=mxgraph.dfd.start" vertex="1" parent="WIyWlLk6GJQsqaUBKTNV-1">
          <mxGeometry x="100" y="80" width="220" height="60" as="geometry" />
        </mxCell>
        <mxCell id="YaLutMvPSZ33mndmcyX8-61" value="" style="endArrow=classic;html=1;rounded=0;entryX=0;entryY=0.5;entryDx=0;entryDy=0;" edge="1" parent="WIyWlLk6GJQsqaUBKTNV-1">
          <mxGeometry width="50" height="50" relative="1" as="geometry">
            <mxPoint x="100" y="1010" as="sourcePoint" />
            <mxPoint x="110" y="700" as="targetPoint" />
            <Array as="points">
              <mxPoint x="-10" y="1010" />
              <mxPoint x="-10" y="700" />
            </Array>
          </mxGeometry>
        </mxCell>
        <mxCell id="YaLutMvPSZ33mndmcyX8-62" value="下一个位置" style="text;html=1;align=center;verticalAlign=middle;resizable=0;points=[];autosize=1;strokeColor=none;fillColor=none;" vertex="1" parent="WIyWlLk6GJQsqaUBKTNV-1">
          <mxGeometry x="-60" y="808" width="80" height="30" as="geometry" />
        </mxCell>
      </root>
    </mxGraphModel>
  </diagram>
</mxfile>
